<svg xmlns="http://www.w3.org/2000/svg" viewBox="0 0 800 264"><g id="a8fb3d05-6cbe-4b50-883a-48ebdaa76cfb" data-name="Objects"><rect x="423" y="238" width="3" height="24" style="fill:#c39467"/><path d="M436.71,224.71a6.05,6.05,0,0,0,1.61-4c0-2.79-2.19-5.26-5.56-6.81a4.8,4.8,0,0,0,1.61-3.42c0-3.47-4.43-6.28-9.89-6.28s-9.88,2.81-9.88,6.28a4.76,4.76,0,0,0,1.61,3.42c-3.37,1.55-5.57,4-5.57,6.81a6.06,6.06,0,0,0,1.62,4c-3.48,2-5.65,4.93-5.65,8.14,0,6.17,8,11.17,17.87,11.17s17.88-5,17.88-11.17C442.36,229.64,440.19,226.74,436.71,224.71Z" style="fill:#80ad12"/><path d="M436.71,224.71a6.05,6.05,0,0,0,1.61-4c0-2.79-2.19-5.26-5.56-6.81a4.8,4.8,0,0,0,1.61-3.42c0-3.47-4.56-6.28-10-6.28-.07,0,.65,0-.35,0V244c1,0,.28,0,.35,0,9.87,0,17.94-5,17.94-11.17C442.29,229.64,440.19,226.74,436.71,224.71Z" style="fill:#91c60e"/><rect x="753" y="232" width="4" height="29" style="fill:#c39467"/><path d="M771.71,217.93c4.41-1.47,7.52-5.05,7.52-9.23,0-4-2.88-7.48-7-9a5.72,5.72,0,0,0,1.7-3.9c0-4.21-5.38-7.63-12-7.63a17.46,17.46,0,0,0-6.19,1.1,17.5,17.5,0,0,0-6.19-1.1c-6.64,0-12,3.42-12,7.63a5.69,5.69,0,0,0,1.71,3.9c-4.14,1.57-7,5-7,9s2.86,7.45,7,9c-3.77,2.28-6.09,5.34-6.09,8.73,0,7,9.93,12.68,22.19,12.68s22.18-5.68,22.18-12.68C777.46,223.17,775.28,220.19,771.71,217.93Z" style="fill:#5f7505"/><path d="M779.23,208.7c0-4-2.88-7.48-7-9a5.72,5.72,0,0,0,1.7-3.9c0-4.21-5.38-7.63-12-7.63a18.78,18.78,0,0,0-6.42,1.1c-.08,0,.51-.05-.49-.08v50c12-.06,22.23-5.71,22.23-12.68,0-3.29-2.06-6.27-5.64-8.53C776,216.46,779.23,212.88,779.23,208.7Z" style="fill:#808e2f"/><rect x="195" y="238" width="3" height="23" style="fill:#c39467"/><path d="M209.45,227.08c3.47-1.17,5.93-4,5.93-7.28s-2.27-5.89-5.53-7.13a4.48,4.48,0,0,0,1.35-3.07c0-3.32-4.24-6-9.47-6a13.58,13.58,0,0,0-4.87.87,13.64,13.64,0,0,0-4.88-.87c-5.23,0-9.46,2.69-9.46,6a4.47,4.47,0,0,0,1.34,3.07c-3.26,1.24-5.52,4-5.52,7.13s2.25,5.87,5.49,7.12c-3,1.79-4.8,4.21-4.8,6.87,0,5.52,7.83,10,17.48,10s17.47-4.47,17.47-10C214,231.21,212.27,228.85,209.45,227.08Z" style="fill:#98aa13"/><path d="M215.38,219.8c0-3.16-2.27-5.89-5.53-7.13a4.48,4.48,0,0,0,1.35-3.07c0-3.32-4.24-6-9.47-6a15.53,15.53,0,0,0-5.2.87c-.07,0,.47,0-.53-.07v39.39c10,0,17.66-4.5,17.66-10,0-2.58-1.56-4.94-4.37-6.71C212.76,225.91,215.38,223.1,215.38,219.8Z" style="fill:#adb548"/><rect x="322" y="237" width="3" height="23" style="fill:#c39467"/><path d="M341.44,220.56c0,14.92-7.77,27-17.35,27s-17.34-12.09-17.34-27,7.77-27,17.34-27S341.44,205.65,341.44,220.56Z" style="fill:#80ad12"/><path d="M323.68,193.55c-.09,0,.32,0-.68,0v54h.68c9.58,0,17.34-12.09,17.34-27S333.26,193.55,323.68,193.55Z" style="fill:#91c60e"/><polygon points="656.89 216.55 654.43 214.67 645 226.18 645 214 642 214 642 226.18 632.95 214.67 630.49 216.55 642 230.96 642 261 645 261 645 230.96 656.89 216.55" style="fill:#c39467"/><path d="M659.2,192.34a15,15,0,0,0-3.09.32A15,15,0,0,0,629.58,194a15.07,15.07,0,1,0,9.24,20.84,15.12,15.12,0,0,0,4.38.65,14.92,14.92,0,0,0,3.09-.32,15.06,15.06,0,1,0,12.91-22.82Z" style="fill:#80ad12"/><path d="M659.2,192.34a17.51,17.51,0,0,0-3.34.32A14.64,14.64,0,0,0,643,185.35v30.11a16.49,16.49,0,0,0,3-.3,15.18,15.18,0,0,0,28.17-7.75A15,15,0,0,0,659.2,192.34Z" style="fill:#91c60e"/><rect x="275" y="231" width="2" height="27" style="fill:#c39467"/><path d="M293.92,234.88c0,7.82-7.78,12.41-17.38,12.41s-17.37-4.59-17.37-12.41,7.06-13.17,17.37-15.92C286,221.77,293.92,227.05,293.92,234.88Z" style="fill:#5d8e07"/><path d="M276.39,219c-.08,0,.61,0-.39.07v28h2.89c8.49-1,15-5.05,15-12.22C293.85,227,285.85,221.77,276.39,219Z" style="fill:#7ba816"/><rect x="242" y="161" width="6" height="101" style="fill:#c39467"/><path d="M269.28,191.1c0,12.77-11,23.13-24.64,23.13S220,203.87,220,191.1,231,89.4,244.64,89.4,269.28,178.33,269.28,191.1Z" style="fill:#80ad12"/><path d="M249.35,214c11.35-1,19.11-11.54,19.11-22.8,0-12.77-9.46-101.8-25.46-101.8V214Z" style="fill:#91c60e"/><rect x="708" y="199" width="4" height="61" style="fill:#c39467"/><path d="M725,216.88c0,7.77-6.71,14.07-15,14.07s-15-6.3-15-14.07S701.71,155,710,155,725,209.11,725,216.88Z" style="fill:#80ad12"/><path d="M712.85,231a13.86,13.86,0,0,0,11.63-14c0-7.77-5.48-62-15.48-62v76Z" style="fill:#91c60e"/><rect x="459" y="237" width="1" height="26" style="fill:#c39467"/><polygon points="470.12 241.55 463.61 241.79 459.39 246.74 455.14 241.8 448.64 241.59 449.86 235.19 445.97 229.97 451.73 226.94 453.38 220.64 459.35 223.25 465.31 220.62 466.98 226.91 472.75 229.93 468.88 235.16 470.12 241.55" style="fill:#2e8c0c"/><polygon points="466.98 226.91 465.31 220.62 459.27 223.25 459 223.17 459 246.48 459.31 246.74 463.57 241.79 470.1 241.55 468.87 235.16 472.75 229.93 466.98 226.91" style="fill:#5ba01f"/><rect x="517" y="201" width="5" height="58" style="fill:#c39467"/><polygon points="562.89 231 543.06 208 556.41 208 528.96 176 546.03 176 527.73 155 539.63 155 524.38 137 532.77 137 519.23 121.33 505.7 137 514.09 137 498.83 155 510.74 155 492.43 176 509.51 176 482.06 208 495.4 208 475.58 231 562.89 231" style="fill:#80ad12"/><polygon points="519 231 562.89 231 543.06 208 556.41 208 528.96 176 546.03 176 527.73 155 539.63 155 524.38 137 532.77 137 519.81 121 519 121 519 231" style="fill:#91c60e"/><rect x="78" y="210" width="4" height="51" style="fill:#c39467"/><polygon points="51.69 230 79.46 122.44 107.22 230 51.69 230" style="fill:#80ad12"/><polygon points="79 230 107.22 230 79.34 122.19 79 122.81 79 230" style="fill:#91c60e"/><polygon points="144.89 221.55 142.43 219.67 130 229.18 130 216 127 216 127 229.18 115.95 218.67 113.49 220.55 127 232.96 127 263 130 263 130 232.96 144.89 221.55" style="fill:#c39467"/><path d="M145.87,199.6a17,17,0,1,1-17-17A17,17,0,0,1,145.87,199.6Z" style="fill:#5f7505"/><path d="M158.12,218.6a9.21,9.21,0,1,1-9.21-9.21A9.21,9.21,0,0,1,158.12,218.6Z" style="fill:#75960e"/><path d="M122.12,220.66a7.28,7.28,0,1,1-7.27-7.27A7.27,7.27,0,0,1,122.12,220.66Z" style="fill:#5f7505"/><path d="M129,182.64v33.92a17,17,0,0,0,0-33.92Z" style="fill:#75960e"/><path d="M399,260H352a12.17,12.17,0,0,1,3.83-3.08,5.29,5.29,0,0,0-3.83-1.13,5.74,5.74,0,0,1,4.5-3.39s-3.67.21-5.08-1.87a11.16,11.16,0,0,0,4.58-1.6s-2.06-1.86-4.12-1.36a5.9,5.9,0,0,1,4.87-2.57,3.63,3.63,0,0,0-2.75-.81s1.31-2.38,5.69-2.56a2.93,2.93,0,0,0-2.06-1.82,7.47,7.47,0,0,1,6.43-2.56s-.18-2.25-2.25-2.37a5.34,5.34,0,0,1,5.57-.38s0-3.31-1.19-3.56a7.63,7.63,0,0,1,4,2.56,2.17,2.17,0,0,0,.25-2.87,4.77,4.77,0,0,1,2.69,3.68s1.56-2.81,1.06-4.75a3.46,3.46,0,0,1,2.25,2.94,3.68,3.68,0,0,1,2.06-2.25,6.17,6.17,0,0,0,.31,2.69,6.82,6.82,0,0,1,3.25-2.56,6.55,6.55,0,0,0-.37,2.62,6.85,6.85,0,0,1,3.75-1.81,24.14,24.14,0,0,0-.69,3.5,10.14,10.14,0,0,1,4.63-.63A14,14,0,0,0,388,236.5s3-.44,6.69,2.75a12.4,12.4,0,0,0-2.63,1.56,12.6,12.6,0,0,1,6,2.69,9.53,9.53,0,0,0-3.37,1s3.75.47,4.87,3.22c0,0-2.93-.5-3.81,1.06,0,0,1.44,0,4.13,2.63,0,0-2.88-.06-4.13,1.06a6.14,6.14,0,0,1,4.13,2.69,8,8,0,0,0-3.75,1.81S398.44,257,399,260Z" style="fill:#80ad12"/><path d="M392.13,258H359a8,8,0,0,1,2.71-2.41,3.62,3.62,0,0,0-2.71-.92,4.08,4.08,0,0,1,3.18-2.45s-2.59.12-3.59-1.35a8.06,8.06,0,0,0,3.24-1.14,3.73,3.73,0,0,0-2.91-1,4.16,4.16,0,0,1,3.44-1.82,2.55,2.55,0,0,0-1.94-.57s.92-1.68,4-1.82a2.09,2.09,0,0,0-1.46-1.28,5.29,5.29,0,0,1,4.55-1.81s-.13-1.58-1.59-1.67a3.77,3.77,0,0,1,3.93-.27s0-2.33-.84-2.51a5.38,5.38,0,0,1,2.82,1.81,1.53,1.53,0,0,0,.18-2,3.38,3.38,0,0,1,1.9,2.6s1.1-2,.75-3.35a2.44,2.44,0,0,1,1.58,2.07,2.63,2.63,0,0,1,1.46-1.59,4.42,4.42,0,0,0,.22,1.9,4.81,4.81,0,0,1,2.3-1.81,4.5,4.5,0,0,0-.27,1.85,4.85,4.85,0,0,1,2.65-1.27,17,17,0,0,0-.49,2.47,7.12,7.12,0,0,1,3.27-.45,10.14,10.14,0,0,0-1,1.73s2.11-.31,4.72,1.94a8.58,8.58,0,0,0-1.86,1.1,8.9,8.9,0,0,1,4.24,1.9,6.84,6.84,0,0,0-2.38.72s2.65.34,3.44,2.28c0,0-2.07-.36-2.69.75,0,0,1,0,2.91,1.85a5.26,5.26,0,0,0-2.91.75,4.34,4.34,0,0,1,2.91,1.9,7.38,7.38,0,0,0-2.65,1.51S391.74,255,392.13,258Z" style="fill:#91c60e"/><path d="M625.16,258c1.14-2,1.79-3.25,1.79-5,0-5.31-6.27-9.75-14.06-9.87v-.24a12.46,12.46,0,0,0-12.65-12.25,12.63,12.63,0,0,0-12,8.19,9,9,0,0,0-7-3.19c-4.86,0-8.81,3.67-8.81,8.19,0,.19,0,.37,0,.55a11.67,11.67,0,0,0-3-.38c-5.76,0-10.42,4.27-10.42,9.22,0,1.64.51,2.74,1.4,4.74Z" style="fill:#74960b"/><path d="M615.89,260a5.74,5.74,0,0,0,1.27-3.5c0-3.78-4.46-6.92-10-7v-.17a8.86,8.86,0,0,0-9-8.7,9,9,0,0,0-8.5,5.82,6.4,6.4,0,0,0-4.95-2.27,6.05,6.05,0,0,0-6.26,5.83c0,.13,0,.26,0,.39a8.23,8.23,0,0,0-2.13-.27c-4.09,0-7.41,3-7.41,6.53a6.27,6.27,0,0,0,1,3.34Z" style="fill:#91c60e"/><path d="M99.85,82c1-1.66,1.48-2.69,1.48-4.11,0-4.4-5.19-8.08-11.65-8.18,0,0,0-.15,0-.2A10.34,10.34,0,0,0,79.2,59.36a10.45,10.45,0,0,0-9.9,6.79,7.48,7.48,0,0,0-5.77-2.65,7.06,7.06,0,0,0-7.3,6.79c0,.16,0,.3,0,.45a10,10,0,0,0-2.47-.31c-4.77,0-8.64,3.54-8.64,7.65A9,9,0,0,0,46.3,82Z" style="fill:#daefed"/><path d="M193.85,147c1-1.66,1.48-2.69,1.48-4.11,0-4.4-5.19-8.08-11.65-8.18,0-.05,0-.15,0-.2a10.34,10.34,0,0,0-10.49-10.15,10.45,10.45,0,0,0-9.9,6.79,7.48,7.48,0,0,0-5.77-2.65,7.06,7.06,0,0,0-7.3,6.79c0,.16,0,.3,0,.45a10,10,0,0,0-2.47-.31c-4.77,0-8.64,3.54-8.64,7.65A9,9,0,0,0,140.3,147Z" style="fill:#daefed"/><path d="M469.85,89c.94-1.66,1.48-2.69,1.48-4.11,0-4.4-5.19-8.08-11.65-8.18,0,0,0-.15,0-.2A10.34,10.34,0,0,0,449.2,66.36a10.45,10.45,0,0,0-9.9,6.79,7.48,7.48,0,0,0-5.77-2.65,7.06,7.06,0,0,0-7.3,6.79c0,.16,0,.3,0,.45a10,10,0,0,0-2.47-.31c-4.77,0-8.64,3.54-8.64,7.65A9,9,0,0,0,416.3,89Z" style="fill:#daefed"/><path d="M600.85,131c.94-1.66,1.48-2.69,1.48-4.11,0-4.4-5.19-8.08-11.65-8.18,0,0,0-.15,0-.2a10.34,10.34,0,0,0-10.49-10.15,10.45,10.45,0,0,0-9.9,6.79,7.48,7.48,0,0,0-5.77-2.65,7.06,7.06,0,0,0-7.3,6.79c0,.16,0,.3,0,.45a10,10,0,0,0-2.47-.31c-4.77,0-8.64,3.54-8.64,7.65A9,9,0,0,0,547.3,131Z" style="fill:#daefed"/><path d="M815.85,166c.94-1.66,1.48-2.69,1.48-4.11,0-4.4-5.19-8.08-11.65-8.18,0-.05,0-.15,0-.2a10.34,10.34,0,0,0-10.49-10.15,10.45,10.45,0,0,0-9.9,6.79,7.48,7.48,0,0,0-5.77-2.65,7.06,7.06,0,0,0-7.3,6.79c0,.16,0,.3,0,.45a10,10,0,0,0-2.47-.31c-4.77,0-8.64,3.54-8.64,7.65A9,9,0,0,0,762.3,166Z" style="fill:#daefed"/><path d="M702.85,80c.94-1.66,1.48-2.69,1.48-4.11,0-4.4-5.19-8.08-11.65-8.18,0,0,0-.15,0-.2A10.34,10.34,0,0,0,682.2,57.36a10.45,10.45,0,0,0-9.9,6.79,7.48,7.48,0,0,0-5.77-2.65,7.06,7.06,0,0,0-7.3,6.79c0,.16,0,.3,0,.45a10,10,0,0,0-2.47-.31c-4.77,0-8.64,3.54-8.64,7.65A9,9,0,0,0,649.3,80Z" style="fill:#daefed"/><path d="M724.24,94a4.36,4.36,0,0,0,.81-2.26c0-2.42-2.85-4.45-6.41-4.5,0,0,0-.08,0-.11a5.8,5.8,0,0,0-11.22-1.85,4.13,4.13,0,0,0-3.17-1.46,3.89,3.89,0,0,0-4,3.74c0,.08,0,.16,0,.25a5.51,5.51,0,0,0-1.36-.18,4.55,4.55,0,0,0-4.75,4.21,4.89,4.89,0,0,0,.64,2.16Z" style="fill:#daefed"/><path d="M372.66,137a5.51,5.51,0,0,0,1.15-3.21c0-3.43-4-6.3-9.05-6.37v-.17a8.19,8.19,0,0,0-15.84-2.61,5.82,5.82,0,0,0-4.49-2.06,5.48,5.48,0,0,0-5.67,5.28c0,.12,0,.23,0,.35a7.62,7.62,0,0,0-1.93-.25c-3.71,0-6.71,2.77-6.71,6A6.18,6.18,0,0,0,331,137Z" style="fill:#daefed"/><path d="M336.38,121c1.12-2,1.76-3.21,1.76-4.9,0-5.25-6.19-9.64-13.89-9.75,0-.06,0-.18,0-.24A12.32,12.32,0,0,0,311.75,94,12.45,12.45,0,0,0,300,102.1a9,9,0,0,0-6.88-3.16c-4.81,0-8.7,3.63-8.7,8.1,0,.18,0,.36,0,.54a11.8,11.8,0,0,0-2.95-.38c-5.69,0-10.3,4.22-10.3,9.12,0,1.62.51,2.7,1.38,4.68Z" style="fill:#daefed"/><path d="M502.32,254.55s-5.92-3.07-11,3.36C491.3,257.91,498.56,259.07,502.32,254.55Z" style="fill:#80ad12"/><path d="M495.63,247.23s2.53,6.18-4.33,10.68C491.3,257.91,490.8,250.57,495.63,247.23Z" style="fill:#80ad12"/><path d="M483.93,250.85s.91,6.61,9.11,7.06C493,257.91,489.79,251.31,483.93,250.85Z" style="fill:#80ad12"/><path d="M480.55,254.58s6.51-3.69,12.49,3.3C493,257.88,485,259.48,480.55,254.58Z" style="fill:#80ad12"/><path d="M490.89,256.41a25.73,25.73,0,0,0-8.66-13l.71-.91a26.52,26.52,0,0,1,7.93,10.36c.08-4.78.58-13.22,3-16.66l1,.66c-3.13,4.51-2.77,19.26-2.76,19.41Z" style="fill:#80ad12"/><polygon points="494.31 232.37 495.23 229.5 495.22 232.52 496.98 230.07 496.04 232.94 498.47 231.16 496.69 233.59 499.56 232.65 497.11 234.41 500.12 234.4 497.25 235.32 500.12 236.24 497.11 236.22 499.56 237.99 496.69 237.04 498.47 239.48 496.04 237.7 496.98 240.56 495.22 238.11 495.23 241.13 494.31 238.26 493.39 241.13 493.4 238.11 491.64 240.56 492.58 237.7 490.15 239.48 491.93 237.04 489.07 237.99 491.52 236.22 488.5 236.24 491.37 235.32 488.5 234.4 491.52 234.41 489.07 232.65 491.93 233.59 490.15 231.16 492.58 232.94 491.64 230.07 493.4 232.52 493.39 229.5 494.31 232.37" style="fill:#d1d3d4"/><path d="M496.88,235.24a2.57,2.57,0,1,1-2.57-2.57A2.57,2.57,0,0,1,496.88,235.24Z" style="fill:#f7bb34"/><polygon points="481.59 238.73 482.51 235.87 482.5 238.88 484.26 236.43 483.32 239.3 485.75 237.52 483.97 239.95 486.84 239 484.39 240.77 487.4 240.75 484.54 241.68 487.4 242.6 484.39 242.58 486.84 244.35 483.97 243.4 485.75 245.84 483.32 244.06 484.26 246.92 482.5 244.47 482.51 247.49 481.59 244.62 480.67 247.49 480.69 244.47 478.92 246.92 479.86 244.06 477.43 245.84 479.21 243.4 476.35 244.35 478.8 242.58 475.78 242.6 478.65 241.68 475.78 240.75 478.8 240.77 476.35 239 479.21 239.95 477.43 237.52 479.86 239.3 478.92 236.43 480.69 238.88 480.67 235.87 481.59 238.73" style="fill:#d1d3d4"/><path d="M484.16,241.6a2.57,2.57,0,1,1-2.57-2.57A2.57,2.57,0,0,1,484.16,241.6Z" style="fill:#f7bb34"/><path d="M177.8,254.54s-7.6-3.93-14.13,4.31C163.67,258.85,173,260.33,177.8,254.54Z" style="fill:#80ad12"/><path d="M169.22,245.16s3.25,7.92-5.55,13.69C163.67,258.85,163,249.44,169.22,245.16Z" style="fill:#80ad12"/><path d="M154.23,249.8s1.17,8.47,11.67,9.05C165.9,258.85,161.73,250.39,154.23,249.8Z" style="fill:#80ad12"/><path d="M149.89,254.58s8.35-4.73,16,4.23C165.9,258.81,155.53,260.86,149.89,254.58Z" style="fill:#80ad12"/><path d="M163.14,256.92A32.92,32.92,0,0,0,152,240.25l.91-1.17a34,34,0,0,1,10.17,13.29c.11-6.14.75-17,3.8-21.36l1.22.84c-4,5.78-3.54,24.69-3.54,24.88Z" style="fill:#80ad12"/><polygon points="167.53 226.12 168.71 222.44 168.7 226.3 170.96 223.17 169.75 226.84 172.87 224.56 170.58 227.67 174.25 226.46 171.12 228.72 174.98 228.71 171.3 229.89 174.98 231.07 171.12 231.05 174.25 233.31 170.58 232.1 172.87 235.22 169.75 232.94 170.96 236.61 168.7 233.47 168.71 237.34 167.53 233.66 166.35 237.34 166.37 233.47 164.11 236.61 165.32 232.94 162.2 235.22 164.48 232.1 160.81 233.31 163.95 231.05 160.09 231.07 163.76 229.89 160.09 228.71 163.95 228.72 160.81 226.46 164.48 227.67 162.2 224.56 165.32 226.84 164.11 223.17 166.37 226.3 166.35 222.44 167.53 226.12" style="fill:#d1d3d4"/><path d="M170.83,229.79a3.3,3.3,0,1,1-3.3-3.3A3.29,3.29,0,0,1,170.83,229.79Z" style="fill:#f7bb34"/><polygon points="151.23 234.27 152.41 230.59 152.4 234.45 154.65 231.32 153.45 234.99 156.56 232.71 154.28 235.82 157.95 234.62 154.82 236.87 158.68 236.86 155 238.04 158.68 239.22 154.82 239.2 157.95 241.46 154.28 240.25 156.56 243.37 153.45 241.09 154.65 244.76 152.4 241.63 152.41 245.49 151.23 241.81 150.05 245.49 150.06 241.63 147.81 244.76 149.01 241.09 145.9 243.37 148.18 240.25 144.51 241.46 147.65 239.2 143.78 239.22 147.46 238.04 143.78 236.86 147.65 236.87 144.51 234.62 148.18 235.82 145.9 232.71 149.01 234.99 147.81 231.32 150.06 234.45 150.05 230.59 151.23 234.27" style="fill:#d1d3d4"/><path d="M154.52,237.94a3.29,3.29,0,1,1-3.29-3.29A3.29,3.29,0,0,1,154.52,237.94Z" style="fill:#f7bb34"/><path d="M662.78,252.94s10.25-5.31,19.07,5.81C681.85,258.75,669.28,260.75,662.78,252.94Z" style="fill:#80ad12"/><path d="M674.36,240.28S670,251,681.85,258.75C681.85,258.75,682.72,246.06,674.36,240.28Z" style="fill:#80ad12"/><path d="M694.59,246.54S693,258,678.85,258.75C678.85,258.75,684.46,247.34,694.59,246.54Z" style="fill:#80ad12"/><path d="M700.44,253s-11.26-6.38-21.59,5.71C678.85,258.7,692.84,261.47,700.44,253Z" style="fill:#80ad12"/><path d="M682.56,256.15a44.51,44.51,0,0,1,15-22.5l-1.23-1.58A45.81,45.81,0,0,0,682.6,250c-.15-8.28-1-22.88-5.14-28.82l-1.64,1.14c5.41,7.8,4.78,33.32,4.77,33.57Z" style="fill:#80ad12"/><polygon points="676.64 214.58 675.04 209.62 675.06 214.83 672.02 210.6 673.65 215.55 669.44 212.47 672.52 216.68 667.57 215.05 671.8 218.09 666.59 218.07 671.55 219.67 666.59 221.26 671.8 221.24 667.57 224.29 672.52 222.66 669.44 226.86 673.65 223.78 672.02 228.73 675.06 224.51 675.04 229.72 676.64 224.75 678.23 229.72 678.21 224.51 681.26 228.73 679.63 223.78 683.83 226.86 680.75 222.66 685.7 224.29 681.48 221.24 686.69 221.26 681.73 219.67 686.69 218.07 681.48 218.09 685.7 215.05 680.75 216.68 683.83 212.47 679.63 215.55 681.26 210.6 678.21 214.83 678.23 209.62 676.64 214.58" style="fill:#d1d3d4"/><path d="M672.19,219.53a4.45,4.45,0,1,0,4.45-4.44A4.44,4.44,0,0,0,672.19,219.53Z" style="fill:#f7bb34"/><polygon points="698.64 225.58 697.04 220.62 697.06 225.83 694.02 221.6 695.65 226.55 691.44 223.47 694.52 227.68 689.57 226.05 693.8 229.09 688.59 229.07 693.55 230.67 688.59 232.26 693.8 232.24 689.57 235.29 694.52 233.66 691.44 237.86 695.65 234.78 694.02 239.73 697.06 235.51 697.04 240.72 698.64 235.75 700.23 240.72 700.21 235.51 703.26 239.73 701.63 234.78 705.83 237.86 702.75 233.66 707.7 235.29 703.48 232.24 708.69 232.26 703.73 230.67 708.69 229.07 703.48 229.09 707.7 226.05 702.75 227.68 705.83 223.47 701.63 226.55 703.26 221.6 700.21 225.83 700.23 220.62 698.64 225.58" style="fill:#d1d3d4"/><path d="M694.19,230.53a4.45,4.45,0,1,0,4.45-4.44A4.44,4.44,0,0,0,694.19,230.53Z" style="fill:#f7bb34"/><path d="M305.46,244.39S299,250.68,299.78,259C299.78,259,305.94,252.69,305.46,244.39Z" style="fill:#80ad12"/><path d="M308.81,250.76s-2.77,6.5-9,8.19C299.78,259,302.63,252.72,308.81,250.76Z" style="fill:#80ad12"/><path d="M300.1,240.84s4.22,9.61-.31,18.11C299.79,259,295.94,249.53,300.1,240.84Z" style="fill:#91c60e"/><path d="M307.68,247.49s-1.38,7.94-7.9,11.46C299.78,259,301.32,251.28,307.68,247.49Z" style="fill:#91c60e"/><path d="M311.59,251.58s-8,1-11.81,7.37C299.78,259,307.51,257.76,311.59,251.58Z" style="fill:#80ad12"/><path d="M295.36,245.78s5.56,5.84,4.51,13.17C299.87,259,294.62,253.15,295.36,245.78Z" style="fill:#80ad12"/><path d="M292.15,249.51s6.35,3.1,7.72,9.44C299.87,259,293.79,255.78,292.15,249.51Z" style="fill:#91c60e"/><path d="M289.31,252.35s7.15.92,10.56,6.6C299.87,259,293,257.88,289.31,252.35Z" style="fill:#80ad12"/><path d="M46.77,229.88S32.87,243.3,34.65,261C34.65,261,47.8,247.59,46.77,229.88Z" style="fill:#80ad12"/><path d="M53.92,243.48S48,257.34,34.65,261C34.65,261,40.73,247.66,53.92,243.48Z" style="fill:#80ad12"/><path d="M35.33,222.3s9,20.5-.66,38.65C34.67,261,26.44,240.84,35.33,222.3Z" style="fill:#91c60e"/><path d="M51.5,236.5s-3,16.95-16.85,24.45C34.65,261,37.93,244.59,51.5,236.5Z" style="fill:#91c60e"/><path d="M59.83,245.21S42.77,247.4,34.65,261C34.65,261,51.15,258.4,59.83,245.21Z" style="fill:#80ad12"/><path d="M25.21,232.86S37.07,245.32,34.83,261C34.83,261,23.64,248.57,25.21,232.86Z" style="fill:#80ad12"/><path d="M18.38,240.81S31.91,247.43,34.83,261C34.83,261,21.87,254.19,18.38,240.81Z" style="fill:#91c60e"/><path d="M12.31,246.88s15.26,2,22.52,14.07C34.83,261,20.08,258.67,12.31,246.88Z" style="fill:#80ad12"/><path d="M111.42,244.32S114.28,252.7,115,258h1.28s2.15-7.4,4.19-9.78a14.26,14.26,0,0,0-3.61,5.32,34.62,34.62,0,0,1,2.27-10.49,30.74,30.74,0,0,0-2.85,8.25s-.35-13.33,2-19c0,0-3,5.53-3,16.81,0,0-.47-6-3.72-10a41.44,41.44,0,0,1,3.25,13.41A30.23,30.23,0,0,0,111.42,244.32Z" style="fill:#3a8708"/><path d="M104.5,247.34A77.44,77.44,0,0,0,101.69,258h-1s-1.68-5.77-3.27-7.62a11,11,0,0,1,2.82,4.14,27,27,0,0,0-1.77-8.17,23.7,23.7,0,0,1,2.22,6.43S101,242.39,99.1,238c0,0,2.31,4.3,2.31,13.1,0,0,.37-4.67,2.91-7.8a32.06,32.06,0,0,0-2.54,10.45A23.79,23.79,0,0,1,104.5,247.34Z" style="fill:#80ad12"/><path d="M237.5,223.55a1.53,1.53,0,0,0-1.5,1.66V237h-4v-8.73a3,3,0,0,0-3-3.27h-.55c-1.84,0-4.44,1.44-4.44,3.27V242h-3V230.21a2,2,0,0,0-4,0v13.9a1.91,1.91,0,0,0,1.71,1.89H224v8.39c0,1.83,2.6,3.61,4.44,3.61H229c1.84,0,3-1.78,3-3.61V241h5.61c.92,0,1.39-1,1.39-1.89v-13.9A1.53,1.53,0,0,0,237.5,223.55Z" style="fill:#2d8c0a"/><path d="M237.5,223.55a1.53,1.53,0,0,0-1.5,1.66V237h-4v-8.73a3,3,0,0,0-3-3.27h-.55a1.78,1.78,0,0,0-.44.22V258l.44,0H229c1.84,0,3-1.78,3-3.61V241h5.61c.92,0,1.39-1,1.39-1.89v-13.9A1.53,1.53,0,0,0,237.5,223.55Z" style="fill:#5fa51c"/><path d="M550.5,225.55a1.53,1.53,0,0,0-1.5,1.66V239h-4v-8.73a3,3,0,0,0-3-3.27h-.55c-1.84,0-4.44,1.44-4.44,3.27V244h-3V232.21a2,2,0,0,0-4,0v13.9a1.91,1.91,0,0,0,1.71,1.89H537v8.39c0,1.83,2.6,3.61,4.44,3.61H542c1.84,0,3-1.78,3-3.61V243h5.61c.92,0,1.39-1,1.39-1.89v-13.9A1.53,1.53,0,0,0,550.5,225.55Z" style="fill:#2d8c0a"/><path d="M550.5,225.55a1.53,1.53,0,0,0-1.5,1.66V239h-4v-8.73a3,3,0,0,0-3-3.27h-.55a1.78,1.78,0,0,0-.44.22V260l.44,0H542c1.84,0,3-1.78,3-3.61V243h5.61c.92,0,1.39-1,1.39-1.89v-13.9A1.53,1.53,0,0,0,550.5,225.55Z" style="fill:#5fa51c"/><rect y="258" width="800" height="4" style="fill:#5f7505"/><polygon points="800 259 798.15 249.91 796.58 255.67 795.83 247.63 793.83 256.9 792.67 252.78 791.25 256.93 789.58 249.76 788.17 256.67 787 253.67 786 256.58 784.83 255.67 784 256.75 781.92 250.92 780.17 256.5 779.17 253.58 776.17 256.42 773.75 247.92 772.42 254.92 770.42 251.5 767.92 255.92 765.92 245.58 762.67 259 763.93 259 800 259" style="fill:#5f7505"/><polygon points="762.28 253.31 761.21 258.48 758.9 251.96 757.25 256.33 756.59 255.22 755.02 256.75 753.28 249.73 751.8 256.91 750.81 253.31 749.07 256.91 747.92 251.79 746.18 256.91 744.95 254.1 743.54 256.91 741.48 250.47 739.83 257 738.26 253.31 737.27 256.83 735.7 255.01 733.55 257.16 732.15 250.22 729.51 258.48 763.67 259 762.28 253.31" style="fill:#5f7505"/><polygon points="731 259 729.15 249.91 727.58 255.67 726.83 247.63 724.83 256.9 723.67 252.78 722.25 256.93 720.58 249.76 719.17 256.67 718 253.67 717 256.58 715.83 255.67 715 256.75 712.92 250.92 711.17 256.5 710.17 253.58 707.17 256.42 704.75 245.92 703.42 254.92 701.42 251.5 698.92 255.92 696.92 249.58 693.67 259 694.93 259 731 259" style="fill:#5f7505"/><polygon points="693.28 253.31 692.21 258.48 689.9 251.96 688.25 256.33 687.59 255.22 686.02 256.75 684.28 249.73 682.8 256.91 681.81 253.31 680.07 256.91 678.92 251.79 677.18 256.91 675.95 254.1 674.54 256.91 672.48 250.47 670.83 257 669.26 253.31 668.27 256.83 666.7 255.01 664.55 257.16 663.15 250.22 660.51 258.48 694.67 259 693.28 253.31" style="fill:#5f7505"/><polygon points="662 259 660.15 249.91 658.58 255.67 656.83 246.63 655.83 256.9 654.67 252.78 653.25 256.93 651.58 249.76 650.17 256.67 649 253.67 648 256.58 646.83 255.67 646 256.75 643.92 250.92 642.17 256.5 641.17 253.58 638.17 256.42 635.75 247.92 634.42 254.92 632.42 251.5 629.92 255.92 627.92 249.58 624.67 259 625.93 259 662 259" style="fill:#5f7505"/><polygon points="624.28 253.31 623.21 258.48 620.9 251.96 619.25 256.33 618.59 255.22 617.02 256.75 615.28 249.73 613.8 256.91 612.81 253.31 611.07 256.91 609.92 251.79 608.18 256.91 606.95 254.1 605.54 256.91 603.48 250.47 601.83 257 600.26 253.31 599.27 256.83 597.7 255.01 595.55 257.16 594.15 250.22 591.51 258.48 625.67 259 624.28 253.31" style="fill:#5f7505"/><polygon points="593 259 591.15 249.91 589.58 255.67 588.83 247.63 586.83 256.9 585.67 252.78 584.25 256.93 582.58 249.76 581.17 256.67 580 253.67 579 256.58 577.83 255.67 577 256.75 574.92 249.92 573.17 256.5 572.17 253.58 569.17 256.42 566.75 247.92 565.42 254.92 563.42 251.5 560.92 255.92 558.92 249.58 555.67 259 556.93 259 593 259" style="fill:#5f7505"/><polygon points="555.28 253.31 554.21 258.48 551.9 251.96 550.25 256.33 548.59 254.22 548.02 256.75 546.28 249.73 544.8 256.91 543.81 253.31 542.07 256.91 540.92 251.79 539.18 256.91 537.95 254.1 536.54 256.91 534.48 250.47 532.83 257 531.26 253.31 530.27 256.83 528.7 255.01 526.55 257.16 525.15 250.22 522.51 258.48 556.67 259 555.28 253.31" style="fill:#5f7505"/><polygon points="524 259 522.15 249.91 520.58 255.67 519.83 247.63 517.83 256.9 516.67 252.78 515.25 256.93 513.58 249.76 512.17 256.67 511 253.67 510 256.58 508.83 255.67 508 256.75 505.92 250.92 504.17 256.5 502.17 252.58 500.17 256.42 497.75 247.92 496.42 254.92 494.42 251.5 491.92 255.92 489.92 249.58 486.67 259 487.93 259 524 259" style="fill:#5f7505"/><polygon points="486.28 253.31 485.21 258.48 482.9 251.96 481.25 256.33 480.59 255.22 479.02 256.75 477.29 249.73 475.8 256.91 474.81 253.31 473.07 256.91 471.92 251.79 470.19 256.91 468.95 254.1 467.54 256.91 465.48 250.47 463.83 257 462.26 253.31 461.27 256.83 459.7 255.01 457.55 257.16 456.15 250.22 453.51 258.48 487.67 259 486.28 253.31" style="fill:#5f7505"/><polygon points="455 259 453.15 249.91 451.58 255.67 450.83 247.63 448.83 256.9 447.67 252.78 446.25 256.93 444.58 249.76 443.17 256.67 442 253.67 441 256.58 439.83 255.67 439 256.75 436.92 250.92 435.17 256.5 434.17 253.58 431.17 256.42 428.75 247.92 427.42 254.92 425.42 251.5 422.92 255.92 420.92 249.58 417.67 259 418.93 259 455 259" style="fill:#5f7505"/><polygon points="417.28 253.31 416.21 258.48 413.9 251.96 412.25 256.33 411.59 255.22 410.02 256.75 408.29 249.73 406.8 256.91 405.81 253.31 404.07 256.91 402.92 251.79 401.19 256.91 399.95 254.1 398.54 256.91 396.48 250.47 394.83 257 393.26 253.31 392.27 256.83 390.7 255.01 388.55 257.16 387.15 250.22 384.51 258.48 418.67 259 417.28 253.31" style="fill:#5f7505"/><polygon points="386 259 384.15 249.91 382.58 255.67 381.83 247.63 379.83 256.9 378.67 252.78 377.25 256.93 375.58 249.76 374.17 256.67 373 253.67 372 256.58 370.83 255.67 370 256.75 367.92 250.92 366.17 256.5 365.17 253.58 362.17 256.42 359.75 247.92 358.42 254.92 356.42 251.5 353.92 255.92 351.92 249.58 348.67 259 349.93 259 386 259" style="fill:#5f7505"/><polygon points="348.28 253.31 347.21 258.48 344.9 251.96 343.25 256.33 342.59 255.22 341.02 256.75 339.29 249.73 337.8 256.91 336.81 253.31 335.07 256.91 333.92 251.79 332.19 256.91 330.95 254.1 329.54 256.91 327.48 250.47 325.83 257 324.26 253.31 323.27 256.83 321.7 255.01 319.55 257.16 318.15 250.22 315.51 258.48 349.67 259 348.28 253.31" style="fill:#5f7505"/><polygon points="317 259 315.15 249.91 313.58 255.67 312.83 247.63 310.83 256.9 309.67 252.78 308.25 256.93 306.58 249.76 305.17 256.67 304 253.67 303 256.58 301.83 255.67 301 256.75 298.92 250.92 297.17 256.5 296.17 253.58 293.17 256.42 290.75 247.92 289.42 254.92 287.42 251.5 284.92 255.92 282.92 249.58 279.67 259 280.93 259 317 259" style="fill:#5f7505"/><polygon points="279.28 253.31 278.21 258.48 275.9 251.96 274.25 256.33 273.59 255.22 272.02 256.75 270.29 249.73 268.8 256.91 267.81 253.31 266.07 256.91 264.92 251.79 263.19 256.91 261.95 254.1 260.54 256.91 258.48 250.47 256.83 257 255.26 253.31 254.27 256.83 252.7 255.01 250.55 257.16 249.15 250.22 246.51 258.48 280.67 259 279.28 253.31" style="fill:#5f7505"/><polygon points="248 259 246.15 249.91 244.58 255.67 243.83 247.63 241.83 256.9 240.67 252.78 239.25 256.93 237.58 249.76 236.17 256.67 235 253.67 234 256.58 232.83 255.67 232 256.75 229.92 250.92 228.17 256.5 227.17 253.58 224.17 256.42 221.75 247.92 220.42 254.92 218.42 251.5 215.92 255.92 213.92 249.58 210.67 259 211.93 259 248 259" style="fill:#5f7505"/><polygon points="210.28 253.31 209.21 258.48 206.9 251.96 205.25 256.33 204.59 255.22 203.02 256.75 201.28 249.73 199.8 256.91 198.81 253.31 197.07 256.91 195.92 251.79 194.19 256.91 192.95 254.1 191.54 256.91 189.48 250.47 187.83 257 186.26 253.31 185.27 256.83 183.7 255.01 181.55 257.16 180.15 250.22 177.51 258.48 211.67 259 210.28 253.31" style="fill:#5f7505"/><polygon points="179 259 177.15 249.91 175.58 255.67 174.83 247.63 172.83 256.9 171.67 252.78 170.25 256.93 168.58 249.76 167.17 256.67 166 253.67 165 256.58 163.83 255.67 163 256.75 160.92 250.92 159.17 256.5 158.17 253.58 155.17 256.42 152.75 247.92 151.42 254.92 149.42 251.5 146.92 255.92 144.92 249.58 141.67 259 142.93 259 179 259" style="fill:#5f7505"/><polygon points="141.28 253.31 140.21 258.48 137.9 251.96 136.25 256.33 135.59 255.22 134.02 256.75 132.28 249.73 130.8 256.91 129.81 253.31 128.07 256.91 126.92 251.79 125.19 256.91 123.95 254.1 122.54 256.91 120.48 250.47 118.83 257 117.26 253.31 116.27 256.83 114.7 255.01 112.55 257.16 111.15 250.22 108.51 258.48 142.67 259 141.28 253.31" style="fill:#5f7505"/><polygon points="110 259 108.15 249.91 106.58 255.67 105.83 247.63 103.83 256.9 102.67 252.78 101.25 256.93 99.58 249.76 98.17 256.67 97 253.67 96 256.58 94.83 255.67 94 256.75 91.92 250.92 90.17 256.5 89.17 253.58 86.17 256.42 83.75 247.92 82.42 254.92 80.42 251.5 77.92 255.92 75.92 249.58 72.67 259 73.93 259 110 259" style="fill:#5f7505"/><polygon points="72.28 253.31 71.21 258.48 68.9 251.96 67.25 256.33 66.59 255.22 65.02 256.75 63.28 249.73 61.8 256.91 60.81 253.31 59.07 256.91 57.92 251.79 56.19 256.91 54.95 254.1 53.54 256.91 51.48 250.47 49.83 257 48.26 253.31 47.27 256.83 45.7 255.01 43.55 257.16 42.15 250.22 39.51 258.48 73.67 259 72.28 253.31" style="fill:#5f7505"/><polygon points="0 255.81 2.94 251.56 4.82 256.67 6.92 251.58 8.92 255.92 11.42 253.5 13.42 255.92 14.75 249.92 17.17 256.42 19.17 252.58 21.17 256.5 22.92 250.92 25 256.75 25.83 255.67 27 256.58 28 253.67 29.17 256.67 30.58 249.76 32.25 256.93 33.67 252.78 34.83 256.9 36.83 247.63 37.58 255.67 39.15 249.91 41 259 4.93 259 3.67 259 0 259 0 255.81" style="fill:#5f7505"/><rect y="260" width="800" height="4" style="fill:#80ad12"/><polygon points="0 261 1.85 251.91 3.42 257.67 4.17 249.63 6.17 258.9 7.33 254.78 8.75 258.93 10.42 251.76 11.83 258.67 13 255.67 14 258.58 15.17 257.67 16 258.75 18.08 252.92 19.83 258.5 20.83 255.58 23.83 258.42 26.25 249.92 27.58 256.92 29.58 253.5 32.08 257.92 34.08 247.58 37.33 261 36.07 261 0 261" style="fill:#80ad12"/><polygon points="37.72 255.31 38.79 260.48 41.1 253.96 42.75 258.33 43.41 257.22 44.98 258.75 46.72 251.73 48.2 258.91 49.19 255.31 50.92 258.91 52.08 253.79 53.81 258.91 55.05 256.11 56.46 258.91 58.52 252.47 60.17 259 61.74 255.31 62.73 258.83 64.3 257.01 66.45 259.16 67.85 252.22 70.49 260.48 36.33 261 37.72 255.31" style="fill:#80ad12"/><polygon points="69 261 70.85 251.91 72.42 257.67 73.17 249.63 75.17 258.9 76.33 254.78 77.75 258.93 79.42 251.76 80.83 258.67 82 255.67 83 258.58 84.17 257.67 85 258.75 87.08 252.92 88.83 258.5 89.83 255.58 92.83 258.42 95.25 247.92 96.58 256.92 98.58 253.5 101.08 257.92 103.08 251.58 106.33 261 105.07 261 69 261" style="fill:#80ad12"/><polygon points="106.72 255.31 107.79 260.48 110.1 253.96 111.75 258.33 112.41 257.22 113.98 258.75 115.72 251.73 117.2 258.91 118.19 255.31 119.92 258.91 121.08 253.79 122.81 258.91 124.05 256.11 125.46 258.91 127.52 252.47 129.17 259 130.74 255.31 131.73 258.83 133.3 257.01 135.45 259.16 136.85 252.22 139.49 260.48 105.33 261 106.72 255.31" style="fill:#80ad12"/><polygon points="138 261 139.85 251.91 141.42 257.67 143.17 248.63 144.17 258.9 145.33 254.78 146.75 258.93 148.42 251.76 149.83 258.67 151 255.67 152 258.58 153.17 257.67 154 258.75 156.08 252.92 157.83 258.5 158.83 255.58 161.83 258.42 164.25 249.92 165.58 256.92 167.58 253.5 170.08 257.92 172.08 251.58 175.33 261 174.07 261 138 261" style="fill:#80ad12"/><polygon points="175.72 255.31 176.79 260.48 179.1 253.96 180.75 258.33 181.41 257.22 182.98 258.75 184.72 251.73 186.2 258.91 187.19 255.31 188.93 258.91 190.08 253.79 191.81 258.91 193.05 256.11 194.46 258.91 196.52 252.47 198.17 259 199.74 255.31 200.73 258.83 202.3 257.01 204.45 259.16 205.85 252.22 208.49 260.48 174.33 261 175.72 255.31" style="fill:#80ad12"/><polygon points="207 261 208.85 251.91 210.42 257.67 211.17 249.63 213.17 258.9 214.33 254.78 215.75 258.93 217.42 251.76 218.83 258.67 220 255.67 221 258.58 222.17 257.67 223 258.75 225.08 251.92 226.83 258.5 227.83 255.58 230.83 258.42 233.25 249.92 234.58 256.92 236.58 253.5 239.08 257.92 241.08 251.58 244.33 261 243.07 261 207 261" style="fill:#80ad12"/><polygon points="244.72 255.31 245.79 260.48 248.1 253.96 249.75 258.33 251.41 256.22 251.98 258.75 253.72 251.73 255.2 258.91 256.19 255.31 257.93 258.91 259.08 253.79 260.81 258.91 262.05 256.11 263.46 258.91 265.52 252.47 267.17 259 268.74 255.31 269.73 258.83 271.3 257.01 273.45 259.16 274.85 252.22 277.49 260.48 243.33 261 244.72 255.31" style="fill:#80ad12"/><polygon points="276 261 277.85 251.91 279.42 257.67 280.17 249.63 282.17 258.9 283.33 254.78 284.75 258.93 286.42 251.76 287.83 258.67 289 255.67 290 258.58 291.17 257.67 292 258.75 294.08 252.92 295.83 258.5 297.83 254.58 299.83 258.42 302.25 249.92 303.58 256.92 305.58 253.5 308.08 257.92 310.08 251.58 313.33 261 312.07 261 276 261" style="fill:#80ad12"/><polygon points="313.72 255.31 314.79 260.48 317.1 253.96 318.75 258.33 319.41 257.22 320.98 258.75 322.71 251.73 324.2 258.91 325.19 255.31 326.93 258.91 328.08 253.79 329.81 258.91 331.05 256.11 332.46 258.91 334.52 252.47 336.17 259 337.74 255.31 338.73 258.83 340.3 257.01 342.45 259.16 343.85 252.22 346.49 260.48 312.33 261 313.72 255.31" style="fill:#80ad12"/><polygon points="345 261 346.85 251.91 348.42 257.67 349.17 249.63 351.17 258.9 352.33 254.78 353.75 258.93 355.42 251.76 356.83 258.67 358 255.67 359 258.58 360.17 257.67 361 258.75 363.08 252.92 364.83 258.5 365.83 255.58 368.83 258.42 371.25 249.92 372.58 256.92 374.58 253.5 377.08 257.92 379.08 251.58 382.33 261 381.07 261 345 261" style="fill:#80ad12"/><polygon points="382.72 255.31 383.79 260.48 386.1 253.96 387.75 258.33 388.41 257.22 389.98 258.75 391.71 251.73 393.2 258.91 394.19 255.31 395.93 258.91 397.08 253.79 398.81 258.91 400.05 256.11 401.46 258.91 403.52 252.47 405.17 259 406.74 255.31 407.73 258.83 409.3 257.01 411.45 259.16 412.85 252.22 415.49 260.48 381.33 261 382.72 255.31" style="fill:#80ad12"/><polygon points="414 261 415.85 251.91 417.42 257.67 418.17 249.63 420.17 258.9 421.33 254.78 422.75 258.93 424.42 251.76 425.83 258.67 427 255.67 428 258.58 429.17 257.67 430 258.75 432.08 252.92 433.83 258.5 434.83 255.58 437.83 258.42 440.25 249.92 441.58 256.92 443.58 253.5 446.08 257.92 448.08 251.58 451.33 261 450.07 261 414 261" style="fill:#80ad12"/><polygon points="451.72 255.31 452.79 260.48 455.1 253.96 456.75 258.33 457.41 257.22 458.98 258.75 460.71 251.73 462.2 258.91 463.19 255.31 464.93 258.91 466.08 253.79 467.81 258.91 469.05 256.11 470.46 258.91 472.52 252.47 474.17 259 475.74 255.31 476.73 258.83 478.3 257.01 480.45 259.16 481.85 252.22 484.49 260.48 450.33 261 451.72 255.31" style="fill:#80ad12"/><polygon points="483 261 484.85 251.91 486.42 257.67 487.17 249.63 489.17 258.9 490.33 254.78 491.75 258.93 493.42 251.76 494.83 258.67 496 255.67 497 258.58 498.17 257.67 499 258.75 501.08 252.92 502.83 258.5 503.83 255.58 506.83 258.42 509.25 249.92 510.58 256.92 512.58 253.5 515.08 257.92 517.08 251.58 520.33 261 519.07 261 483 261" style="fill:#80ad12"/><polygon points="520.72 255.31 521.79 260.48 524.1 253.96 525.75 258.33 526.41 257.22 527.98 258.75 529.72 251.73 531.2 258.91 532.19 255.31 533.93 258.91 535.08 253.79 536.81 258.91 538.05 256.11 539.46 258.91 541.52 252.47 543.17 259 544.74 255.31 545.73 258.83 547.3 257.01 549.45 259.16 550.85 252.22 553.49 260.48 519.33 261 520.72 255.31" style="fill:#80ad12"/><polygon points="552 261 553.85 251.91 555.42 257.67 556.17 249.63 558.17 258.9 559.33 254.78 560.75 258.93 562.42 251.76 563.83 258.67 565 255.67 566 258.58 567.17 257.67 568 258.75 570.08 252.92 571.83 258.5 572.83 255.58 575.83 258.42 578.25 249.92 579.58 256.92 581.58 253.5 584.08 257.92 586.08 251.58 589.33 261 588.07 261 552 261" style="fill:#80ad12"/><polygon points="589.72 255.31 590.79 260.48 593.1 253.96 594.75 258.33 595.41 257.22 596.98 258.75 598.72 251.73 600.2 258.91 601.19 255.31 602.93 258.91 604.08 253.79 605.81 258.91 607.05 256.11 608.46 258.91 610.52 252.47 612.17 259 613.74 255.31 614.73 258.83 616.3 257.01 618.45 259.16 619.85 252.22 622.49 260.48 588.33 261 589.72 255.31" style="fill:#80ad12"/><polygon points="621 261 622.85 251.91 624.42 257.67 625.17 249.63 627.17 258.9 628.33 254.78 629.75 258.93 631.42 251.76 632.83 258.67 634 255.67 635 258.58 636.17 257.67 637 258.75 639.08 252.92 640.83 258.5 641.83 255.58 644.83 258.42 647.25 249.92 648.58 256.92 650.58 253.5 653.08 257.92 655.08 251.58 658.33 261 657.07 261 621 261" style="fill:#80ad12"/><polygon points="658.72 255.31 659.79 260.48 662.1 253.96 663.75 258.33 664.41 257.22 665.98 258.75 667.72 251.73 669.2 258.91 670.19 255.31 671.93 258.91 673.08 253.79 674.81 258.91 676.05 256.11 677.46 258.91 679.52 252.47 681.17 259 682.74 255.31 683.73 258.83 685.3 257.01 687.45 259.16 688.85 252.22 691.49 260.48 657.33 261 658.72 255.31" style="fill:#80ad12"/><polygon points="690 261 691.85 251.91 693.42 257.67 694.17 249.63 696.17 258.9 697.33 254.78 698.75 258.93 700.42 251.76 701.83 258.67 703 255.67 704 258.58 705.17 257.67 706 258.75 708.08 252.92 709.83 258.5 710.83 255.58 713.83 258.42 716.25 249.92 717.58 256.92 719.58 253.5 722.08 257.92 724.08 251.58 727.33 261 726.07 261 690 261" style="fill:#80ad12"/><polygon points="727.72 255.31 728.79 260.48 731.1 253.96 732.75 258.33 733.41 257.22 734.98 258.75 736.72 251.73 738.2 258.91 739.19 255.31 740.93 258.91 742.08 253.79 743.81 258.91 745.05 256.11 746.46 258.91 748.52 252.47 750.17 259 751.74 255.31 752.73 258.83 754.3 257.01 756.45 259.16 757.85 252.22 760.49 260.48 726.33 261 727.72 255.31" style="fill:#80ad12"/><polygon points="800 257.81 797.06 253.56 795.18 258.67 793.08 253.58 791.08 257.92 788.58 255.5 786.58 257.92 785.25 251.92 782.83 258.42 780.83 254.58 778.83 258.5 777.08 252.92 775 258.75 774.17 257.67 773 258.58 772 255.67 770.83 258.67 769.42 251.76 767.75 258.93 766.33 254.78 765.17 258.9 763.17 249.63 762.42 257.67 760.85 251.91 759 261 795.07 261 796.33 261 800 261 800 257.81" style="fill:#80ad12"/></g></svg>